{
	"asset":{
		"generator":"Khronos glTF Blender I/O v5.0.21",
		"version":"2.0"
	},
	"extensionsUsed":[
		"KHR_materials_transmission",
		"KHR_materials_specular",
		"KHR_materials_ior",
		"KHR_texture_transform"
	],
	"extensionsRequired":[
		"KHR_texture_transform"
	],
	"scene":0,
	"scenes":[
		{
			"name":"Scene",
			"nodes":[
				0
			]
		}
	],
	"nodes":[
		{
			"mesh":0,
			"name":"Aeroshell+WS",
			"translation":[
				0,
				0.3455471098423004,
				0
			]
		}
	],
	"materials":[
		{
			"doubleSided":true,
			"name":"Aeroshell_Body.001",
			"pbrMetallicRoughness":{
				"baseColorFactor":[
					0.550000011920929,
					0.550000011920929,
					0.5799999833106995,
					1
				],
				"metallicFactor":0.30000001192092896,
				"roughnessFactor":0.4000000059604645
			}
		},
		{
			"alphaMode":"BLEND",
			"doubleSided":true,
			"extensions":{
				"KHR_materials_transmission":{
					"transmissionFactor":1
				},
				"KHR_materials_ior":{
					"ior":1.4500000476837158
				}
			},
			"name":"Windshield_Glass.001",
			"pbrMetallicRoughness":{
				"baseColorFactor":[
					0.8500000238418579,
					0.949999988079071,
					1,
					0.15000000596046448
				],
				"metallicFactor":0,
				"roughnessFactor":0
			}
		},
		{
			"doubleSided":true,
			"extensions":{
				"KHR_materials_specular":{
					"specularColorFactor":[
						1.7000000476837158,
						1.7000000476837158,
						1.7000000476837158
					]
				}
			},
			"name":"Solar_Cells",
			"pbrMetallicRoughness":{
				"baseColorTexture":{
					"extensions":{
						"KHR_texture_transform":{
							"offset":[
								0,
								-39.39703369140625
							],
							"scale":[
								10.593000411987305,
								40.39703369140625
							]
						}
					},
					"index":0
				},
				"metallicFactor":0,
				"roughnessFactor":0.07999999821186066
			}
		}
	],
	"meshes":[
		{
			"name":"Aeroshell+WS.001",
			"primitives":[
				{
					"attributes":{
						"POSITION":0,
						"NORMAL":1,
						"TEXCOORD_0":2
					},
					"indices":3,
					"material":0
				},
				{
					"attributes":{
						"POSITION":4,
						"NORMAL":5,
						"TEXCOORD_0":6
					},
					"indices":7,
					"material":1
				},
				{
					"attributes":{
						"POSITION":8,
						"NORMAL":9,
						"TEXCOORD_0":10
					},
					"indices":11,
					"material":2
				}
			]
		}
	],
	"textures":[
		{
			"sampler":0,
			"source":0
		}
	],
	"images":[
		{
			"mimeType":"image/png",
			"name":"SolarCell_Tile",
			"uri":"SolarCell_Tile.png"
		}
	],
	"accessors":[
		{
			"bufferView":0,
			"componentType":5126,
			"count":43043,
			"max":[
				0.5913089513778687,
				0.17451655864715576,
				2.250000238418579
			],
			"min":[
				-0.5913089513778687,
				-0.3455471098423004,
				-2.250000238418579
			],
			"type":"VEC3"
		},
		{
			"bufferView":1,
			"componentType":5126,
			"count":43043,
			"type":"VEC3"
		},
		{
			"bufferView":2,
			"componentType":5126,
			"count":43043,
			"type":"VEC2"
		},
		{
			"bufferView":3,
			"componentType":5123,
			"count":45033,
			"type":"SCALAR"
		},
		{
			"bufferView":4,
			"componentType":5126,
			"count":9886,
			"max":[
				0.21356922388076782,
				0.3455471098423004,
				0.25775957107543945
			],
			"min":[
				-0.2135692536830902,
				0.08642308413982391,
				-0.9056993722915649
			],
			"type":"VEC3"
		},
		{
			"bufferView":5,
			"componentType":5126,
			"count":9886,
			"type":"VEC3"
		},
		{
			"bufferView":6,
			"componentType":5126,
			"count":9886,
			"type":"VEC2"
		},
		{
			"bufferView":7,
			"componentType":5123,
			"count":9954,
			"type":"SCALAR"
		},
		{
			"bufferView":8,
			"componentType":5126,
			"count":9772,
			"max":[
				0.5912920236587524,
				0.12037263810634613,
				2.250000238418579
			],
			"min":[
				-0.5912920832633972,
				-0.05595218390226364,
				-2.2474822998046875
			],
			"type":"VEC3"
		},
		{
			"bufferView":9,
			"componentType":5126,
			"count":9772,
			"type":"VEC3"
		},
		{
			"bufferView":10,
			"componentType":5126,
			"count":9772,
			"type":"VEC2"
		},
		{
			"bufferView":11,
			"componentType":5123,
			"count":9975,
			"type":"SCALAR"
		}
	],
	"bufferViews":[
		{
			"buffer":0,
			"byteLength":516516,
			"byteOffset":0,
			"target":34962
		},
		{
			"buffer":0,
			"byteLength":516516,
			"byteOffset":516516,
			"target":34962
		},
		{
			"buffer":0,
			"byteLength":344344,
			"byteOffset":1033032,
			"target":34962
		},
		{
			"buffer":0,
			"byteLength":90066,
			"byteOffset":1377376,
			"target":34963
		},
		{
			"buffer":0,
			"byteLength":118632,
			"byteOffset":1467444,
			"target":34962
		},
		{
			"buffer":0,
			"byteLength":118632,
			"byteOffset":1586076,
			"target":34962
		},
		{
			"buffer":0,
			"byteLength":79088,
			"byteOffset":1704708,
			"target":34962
		},
		{
			"buffer":0,
			"byteLength":19908,
			"byteOffset":1783796,
			"target":34963
		},
		{
			"buffer":0,
			"byteLength":117264,
			"byteOffset":1803704,
			"target":34962
		},
		{
			"buffer":0,
			"byteLength":117264,
			"byteOffset":1920968,
			"target":34962
		},
		{
			"buffer":0,
			"byteLength":78176,
			"byteOffset":2038232,
			"target":34962
		},
		{
			"buffer":0,
			"byteLength":19950,
			"byteOffset":2116408,
			"target":34963
		}
	],
	"samplers":[
		{
			"magFilter":9729,
			"minFilter":9987
		}
	],
	"buffers":[
		{
			"byteLength":2136360,
			"uri":"sunburst-body.bin"
		}
	]
}
